<?xml version="1.0" encoding="us-ascii" standalone="no"?><svg xmlns="http://www.w3.org/2000/svg" xmlns:xlink="http://www.w3.org/1999/xlink" contentStyleType="text/css" height="553px" preserveAspectRatio="none" style="width:1020px;height:553px;background:#FFFFFF;" version="1.1" viewBox="0 0 1020 553" width="1020px" zoomAndPan="magnify"><defs/><g><!--class Backend--><g id="elem_Backend"><rect codeLine="1" fill="#F1F1F1" height="80.5938" id="Backend" rx="2.5" ry="2.5" style="stroke:#181818;stroke-width:0.5;" width="327" x="281" y="7"/><ellipse cx="409.25" cy="23" fill="#ADD1B2" rx="11" ry="11" style="stroke:#181818;stroke-width:1.0;"/><path d="M411.5938,18.6719 C410.6563,18.2344 410.0625,18.0938 409.1875,18.0938 C406.5625,18.0938 404.5625,20.1719 404.5625,22.8906 L404.5625,24.0156 C404.5625,26.5938 406.6719,28.4844 409.5625,28.4844 C410.7813,28.4844 411.9375,28.1875 412.6875,27.6406 C413.2656,27.2344 413.5938,26.7813 413.5938,26.3906 C413.5938,25.9375 413.2031,25.5469 412.7344,25.5469 C412.5156,25.5469 412.3125,25.625 412.125,25.8125 C411.6719,26.2969 411.6719,26.2969 411.4844,26.3906 C411.0625,26.6563 410.375,26.7813 409.6094,26.7813 C407.5625,26.7813 406.2656,25.6875 406.2656,23.9844 L406.2656,22.8906 C406.2656,21.1094 407.5156,19.7969 409.25,19.7969 C409.8281,19.7969 410.4375,19.9531 410.9063,20.2031 C411.3906,20.4844 411.5625,20.7031 411.6563,21.1094 C411.7188,21.5156 411.75,21.6406 411.8906,21.7656 C412.0313,21.9063 412.2656,22.0156 412.4844,22.0156 C412.75,22.0156 413.0156,21.875 413.1875,21.6563 C413.2969,21.5 413.3281,21.3125 413.3281,20.8906 L413.3281,19.4688 C413.3281,19.0313 413.3125,18.9063 413.2188,18.75 C413.0625,18.4844 412.7813,18.3438 412.4844,18.3438 C412.1875,18.3438 411.9844,18.4375 411.7656,18.75 L411.5938,18.6719 Z " fill="#000000"/><text fill="#000000" font-family="sans-serif" font-size="14" lengthAdjust="spacing" textLength="62" x="429.75" y="27.8467">Backend</text><line style="stroke:#181818;stroke-width:0.5;" x1="282" x2="607" y1="39" y2="39"/><line style="stroke:#181818;stroke-width:0.5;" x1="282" x2="607" y1="47" y2="47"/><ellipse cx="292" cy="60.6484" fill="#84BE84" rx="3" ry="3" style="stroke:#038048;stroke-width:1.0;"/><text fill="#000000" font-family="sans-serif" font-size="14" lengthAdjust="spacing" textLength="301" x="301" y="63.9951">GetData(dataType: DataType): ChartData</text><ellipse cx="292" cy="76.9453" fill="#84BE84" rx="3" ry="3" style="stroke:#038048;stroke-width:1.0;"/><text fill="#000000" font-family="sans-serif" font-size="14" lengthAdjust="spacing" textLength="258" x="301" y="80.292">AcceptInput(input: InputData): void</text></g><!--class Frontend--><g id="elem_Frontend"><rect codeLine="6" fill="#F1F1F1" height="80.5938" id="Frontend" rx="2.5" ry="2.5" style="stroke:#181818;stroke-width:0.5;" width="281" x="732" y="7"/><ellipse cx="835.25" cy="23" fill="#ADD1B2" rx="11" ry="11" style="stroke:#181818;stroke-width:1.0;"/><path d="M837.5938,18.6719 C836.6563,18.2344 836.0625,18.0938 835.1875,18.0938 C832.5625,18.0938 830.5625,20.1719 830.5625,22.8906 L830.5625,24.0156 C830.5625,26.5938 832.6719,28.4844 835.5625,28.4844 C836.7813,28.4844 837.9375,28.1875 838.6875,27.6406 C839.2656,27.2344 839.5938,26.7813 839.5938,26.3906 C839.5938,25.9375 839.2031,25.5469 838.7344,25.5469 C838.5156,25.5469 838.3125,25.625 838.125,25.8125 C837.6719,26.2969 837.6719,26.2969 837.4844,26.3906 C837.0625,26.6563 836.375,26.7813 835.6094,26.7813 C833.5625,26.7813 832.2656,25.6875 832.2656,23.9844 L832.2656,22.8906 C832.2656,21.1094 833.5156,19.7969 835.25,19.7969 C835.8281,19.7969 836.4375,19.9531 836.9063,20.2031 C837.3906,20.4844 837.5625,20.7031 837.6563,21.1094 C837.7188,21.5156 837.75,21.6406 837.8906,21.7656 C838.0313,21.9063 838.2656,22.0156 838.4844,22.0156 C838.75,22.0156 839.0156,21.875 839.1875,21.6563 C839.2969,21.5 839.3281,21.3125 839.3281,20.8906 L839.3281,19.4688 C839.3281,19.0313 839.3125,18.9063 839.2188,18.75 C839.0625,18.4844 838.7813,18.3438 838.4844,18.3438 C838.1875,18.3438 837.9844,18.4375 837.7656,18.75 L837.5938,18.6719 Z " fill="#000000"/><text fill="#000000" font-family="sans-serif" font-size="14" lengthAdjust="spacing" textLength="66" x="855.75" y="27.8467">Frontend</text><line style="stroke:#181818;stroke-width:0.5;" x1="733" x2="1012" y1="39" y2="39"/><rect fill="none" height="6" style="stroke:#C82930;stroke-width:1.0;" width="6" x="740" y="49.6484"/><text fill="#000000" font-family="sans-serif" font-size="14" lengthAdjust="spacing" textLength="190" x="752" y="55.9951">Windows Forms Document</text><line style="stroke:#181818;stroke-width:0.5;" x1="733" x2="1012" y1="63.2969" y2="63.2969"/><ellipse cx="743" cy="76.9453" fill="#84BE84" rx="3" ry="3" style="stroke:#038048;stroke-width:1.0;"/><text fill="#000000" font-family="sans-serif" font-size="14" lengthAdjust="spacing" textLength="255" x="752" y="80.292">HandleInput(input: InputData): void</text></g><!--class ArchivoDeTexto2D--><g id="elem_ArchivoDeTexto2D"><rect codeLine="11" fill="#F1F1F1" height="48" id="ArchivoDeTexto2D" rx="2.5" ry="2.5" style="stroke:#181818;stroke-width:0.5;" width="167" x="7" y="267.5"/><ellipse cx="22" cy="283.5" fill="#ADD1B2" rx="11" ry="11" style="stroke:#181818;stroke-width:1.0;"/><path d="M20.7969,284.375 L22.25,284.375 L22.25,284.4844 C22.25,284.8906 22.2813,285.0469 22.3594,285.2031 C22.5156,285.4531 22.7969,285.6094 23.0938,285.6094 C23.3438,285.6094 23.6094,285.4688 23.7656,285.25 C23.8906,285.0938 23.9219,284.9375 23.9219,284.4844 L23.9219,282.5625 C23.9219,282.4063 23.9219,282.3594 23.9063,282.2031 C23.8438,281.7344 23.5313,281.4219 23.0781,281.4219 C22.8281,281.4219 22.5625,281.5625 22.3906,281.7813 C22.2813,281.9531 22.25,282.1094 22.25,282.5625 L22.25,282.6875 L20.7969,282.6875 L20.7969,280.2813 L24.7813,280.2813 L24.7813,281.1406 C24.7813,281.5469 24.8125,281.7188 24.8906,281.875 C25.0625,282.125 25.3438,282.2813 25.625,282.2813 C25.8906,282.2813 26.1563,282.1406 26.3281,281.9219 C26.4375,281.75 26.4688,281.6094 26.4688,281.1406 L26.4688,278.5938 L18.8438,278.5938 C18.4063,278.5938 18.2813,278.6094 18.125,278.7031 C17.875,278.8594 17.7188,279.1563 17.7188,279.4375 C17.7188,279.7188 17.8594,279.9688 18.0781,280.1406 C18.2344,280.25 18.4219,280.2813 18.8438,280.2813 L19.0938,280.2813 L19.0938,286.7969 L18.8438,286.7969 C18.4375,286.7969 18.2813,286.8125 18.125,286.9219 C17.875,287.0938 17.7188,287.3594 17.7188,287.6563 C17.7188,287.9219 17.8594,288.1719 18.0781,288.3281 C18.2188,288.4531 18.4531,288.5 18.8438,288.5 L26.8438,288.5 L26.8438,285.9219 C26.8438,285.4844 26.8125,285.3438 26.7344,285.1875 C26.5625,284.9375 26.2813,284.7813 26,284.7813 C25.7344,284.7813 25.4688,284.8906 25.2969,285.1406 C25.1875,285.2969 25.1563,285.4375 25.1563,285.9219 L25.1563,286.7969 L20.7969,286.7969 L20.7969,284.375 Z " fill="#000000"/><text fill="#000000" font-family="sans-serif" font-size="14" lengthAdjust="spacing" textLength="135" x="36" y="288.3467">ArchivoDeTexto2D</text><line style="stroke:#181818;stroke-width:0.5;" x1="8" x2="173" y1="299.5" y2="299.5"/><line style="stroke:#181818;stroke-width:0.5;" x1="8" x2="173" y1="307.5" y2="307.5"/></g><!--class ArchivoDeTexto3D--><g id="elem_ArchivoDeTexto3D"><rect codeLine="12" fill="#F1F1F1" height="48" id="ArchivoDeTexto3D" rx="2.5" ry="2.5" style="stroke:#181818;stroke-width:0.5;" width="168" x="651.5" y="267.5"/><ellipse cx="666.5" cy="283.5" fill="#ADD1B2" rx="11" ry="11" style="stroke:#181818;stroke-width:1.0;"/><path d="M665.2969,284.375 L666.75,284.375 L666.75,284.4844 C666.75,284.8906 666.7813,285.0469 666.8594,285.2031 C667.0156,285.4531 667.2969,285.6094 667.5938,285.6094 C667.8438,285.6094 668.1094,285.4688 668.2656,285.25 C668.3906,285.0938 668.4219,284.9375 668.4219,284.4844 L668.4219,282.5625 C668.4219,282.4063 668.4219,282.3594 668.4063,282.2031 C668.3438,281.7344 668.0313,281.4219 667.5781,281.4219 C667.3281,281.4219 667.0625,281.5625 666.8906,281.7813 C666.7813,281.9531 666.75,282.1094 666.75,282.5625 L666.75,282.6875 L665.2969,282.6875 L665.2969,280.2813 L669.2813,280.2813 L669.2813,281.1406 C669.2813,281.5469 669.3125,281.7188 669.3906,281.875 C669.5625,282.125 669.8438,282.2813 670.125,282.2813 C670.3906,282.2813 670.6563,282.1406 670.8281,281.9219 C670.9375,281.75 670.9688,281.6094 670.9688,281.1406 L670.9688,278.5938 L663.3438,278.5938 C662.9063,278.5938 662.7813,278.6094 662.625,278.7031 C662.375,278.8594 662.2188,279.1563 662.2188,279.4375 C662.2188,279.7188 662.3594,279.9688 662.5781,280.1406 C662.7344,280.25 662.9219,280.2813 663.3438,280.2813 L663.5938,280.2813 L663.5938,286.7969 L663.3438,286.7969 C662.9375,286.7969 662.7813,286.8125 662.625,286.9219 C662.375,287.0938 662.2188,287.3594 662.2188,287.6563 C662.2188,287.9219 662.3594,288.1719 662.5781,288.3281 C662.7188,288.4531 662.9531,288.5 663.3438,288.5 L671.3438,288.5 L671.3438,285.9219 C671.3438,285.4844 671.3125,285.3438 671.2344,285.1875 C671.0625,284.9375 670.7813,284.7813 670.5,284.7813 C670.2344,284.7813 669.9688,284.8906 669.7969,285.1406 C669.6875,285.2969 669.6563,285.4375 669.6563,285.9219 L669.6563,286.7969 L665.2969,286.7969 L665.2969,284.375 Z " fill="#000000"/><text fill="#000000" font-family="sans-serif" font-size="14" lengthAdjust="spacing" textLength="136" x="680.5" y="288.3467">ArchivoDeTexto3D</text><line style="stroke:#181818;stroke-width:0.5;" x1="652.5" x2="818.5" y1="299.5" y2="299.5"/><line style="stroke:#181818;stroke-width:0.5;" x1="652.5" x2="818.5" y1="307.5" y2="307.5"/></g><!--class Graphic2DController--><g id="elem_Graphic2DController"><rect codeLine="13" fill="#F1F1F1" height="129.4844" id="Graphic2DController" rx="2.5" ry="2.5" style="stroke:#181818;stroke-width:0.5;" width="182" x="234.5" y="227"/><ellipse cx="250.4" cy="243" fill="#ADD1B2" rx="11" ry="11" style="stroke:#181818;stroke-width:1.0;"/><path d="M252.7438,238.6719 C251.8063,238.2344 251.2125,238.0938 250.3375,238.0938 C247.7125,238.0938 245.7125,240.1719 245.7125,242.8906 L245.7125,244.0156 C245.7125,246.5938 247.8219,248.4844 250.7125,248.4844 C251.9313,248.4844 253.0875,248.1875 253.8375,247.6406 C254.4156,247.2344 254.7438,246.7813 254.7438,246.3906 C254.7438,245.9375 254.3531,245.5469 253.8844,245.5469 C253.6656,245.5469 253.4625,245.625 253.275,245.8125 C252.8219,246.2969 252.8219,246.2969 252.6344,246.3906 C252.2125,246.6563 251.525,246.7813 250.7594,246.7813 C248.7125,246.7813 247.4156,245.6875 247.4156,243.9844 L247.4156,242.8906 C247.4156,241.1094 248.6656,239.7969 250.4,239.7969 C250.9781,239.7969 251.5875,239.9531 252.0563,240.2031 C252.5406,240.4844 252.7125,240.7031 252.8063,241.1094 C252.8688,241.5156 252.9,241.6406 253.0406,241.7656 C253.1813,241.9063 253.4156,242.0156 253.6344,242.0156 C253.9,242.0156 254.1656,241.875 254.3375,241.6563 C254.4469,241.5 254.4781,241.3125 254.4781,240.8906 L254.4781,239.4688 C254.4781,239.0313 254.4625,238.9063 254.3688,238.75 C254.2125,238.4844 253.9313,238.3438 253.6344,238.3438 C253.3375,238.3438 253.1344,238.4375 252.9156,238.75 L252.7438,238.6719 Z " fill="#000000"/><text fill="#000000" font-family="sans-serif" font-size="14" lengthAdjust="spacing" textLength="148" x="264.6" y="247.8467">Graphic2DController</text><line style="stroke:#181818;stroke-width:0.5;" x1="235.5" x2="415.5" y1="259" y2="259"/><rect fill="none" height="6" style="stroke:#C82930;stroke-width:1.0;" width="6" x="242.5" y="269.6484"/><text fill="#000000" font-family="sans-serif" font-size="14" lengthAdjust="spacing" textLength="75" x="254.5" y="275.9951">data: Data</text><line style="stroke:#181818;stroke-width:0.5;" x1="235.5" x2="415.5" y1="283.2969" y2="283.2969"/><ellipse cx="245.5" cy="296.9453" fill="#84BE84" rx="3" ry="3" style="stroke:#038048;stroke-width:1.0;"/><text fill="#000000" font-family="sans-serif" font-size="14" lengthAdjust="spacing" textLength="80" x="254.5" y="300.292">Get(): Data</text><ellipse cx="245.5" cy="313.2422" fill="#84BE84" rx="3" ry="3" style="stroke:#038048;stroke-width:1.0;"/><text fill="#000000" font-family="sans-serif" font-size="14" lengthAdjust="spacing" textLength="156" x="254.5" y="316.5889">Post(data: Data): void</text><ellipse cx="245.5" cy="329.5391" fill="#84BE84" rx="3" ry="3" style="stroke:#038048;stroke-width:1.0;"/><text fill="#000000" font-family="sans-serif" font-size="14" lengthAdjust="spacing" textLength="111" x="254.5" y="332.8857">Delete(id): void</text><ellipse cx="245.5" cy="345.8359" fill="#84BE84" rx="3" ry="3" style="stroke:#038048;stroke-width:1.0;"/><text fill="#000000" font-family="sans-serif" font-size="14" lengthAdjust="spacing" textLength="148" x="254.5" y="349.1826">Put(data: Data): void</text></g><!--class GraphicData2D--><g id="elem_GraphicData2D"><rect codeLine="21" fill="#F1F1F1" height="80.5938" id="GraphicData2D" rx="2.5" ry="2.5" style="stroke:#181818;stroke-width:0.5;" width="141" x="251" y="449"/><ellipse cx="266" cy="465" fill="#ADD1B2" rx="11" ry="11" style="stroke:#181818;stroke-width:1.0;"/><path d="M268.3438,460.6719 C267.4063,460.2344 266.8125,460.0938 265.9375,460.0938 C263.3125,460.0938 261.3125,462.1719 261.3125,464.8906 L261.3125,466.0156 C261.3125,468.5938 263.4219,470.4844 266.3125,470.4844 C267.5313,470.4844 268.6875,470.1875 269.4375,469.6406 C270.0156,469.2344 270.3438,468.7813 270.3438,468.3906 C270.3438,467.9375 269.9531,467.5469 269.4844,467.5469 C269.2656,467.5469 269.0625,467.625 268.875,467.8125 C268.4219,468.2969 268.4219,468.2969 268.2344,468.3906 C267.8125,468.6563 267.125,468.7813 266.3594,468.7813 C264.3125,468.7813 263.0156,467.6875 263.0156,465.9844 L263.0156,464.8906 C263.0156,463.1094 264.2656,461.7969 266,461.7969 C266.5781,461.7969 267.1875,461.9531 267.6563,462.2031 C268.1406,462.4844 268.3125,462.7031 268.4063,463.1094 C268.4688,463.5156 268.5,463.6406 268.6406,463.7656 C268.7813,463.9063 269.0156,464.0156 269.2344,464.0156 C269.5,464.0156 269.7656,463.875 269.9375,463.6563 C270.0469,463.5 270.0781,463.3125 270.0781,462.8906 L270.0781,461.4688 C270.0781,461.0313 270.0625,460.9063 269.9688,460.75 C269.8125,460.4844 269.5313,460.3438 269.2344,460.3438 C268.9375,460.3438 268.7344,460.4375 268.5156,460.75 L268.3438,460.6719 Z " fill="#000000"/><text fill="#000000" font-family="sans-serif" font-size="14" lengthAdjust="spacing" textLength="109" x="280" y="469.8467">GraphicData2D</text><line style="stroke:#181818;stroke-width:0.5;" x1="252" x2="391" y1="481" y2="481"/><ellipse cx="262" cy="494.6484" fill="none" rx="3" ry="3" style="stroke:#038048;stroke-width:1.0;"/><text fill="#000000" font-family="sans-serif" font-size="14" lengthAdjust="spacing" textLength="51" x="271" y="497.9951">x: float</text><ellipse cx="262" cy="510.9453" fill="none" rx="3" ry="3" style="stroke:#038048;stroke-width:1.0;"/><text fill="#000000" font-family="sans-serif" font-size="14" lengthAdjust="spacing" textLength="51" x="271" y="514.292">y: float</text><line style="stroke:#181818;stroke-width:0.5;" x1="252" x2="391" y1="521.5938" y2="521.5938"/></g><!--class GraphicController--><g id="elem_GraphicController"><rect codeLine="26" fill="#F1F1F1" height="80.5938" id="GraphicController" rx="2.5" ry="2.5" style="stroke:#181818;stroke-width:0.5;" width="161" x="455" y="251"/><ellipse cx="470" cy="267" fill="#ADD1B2" rx="11" ry="11" style="stroke:#181818;stroke-width:1.0;"/><path d="M472.3438,262.6719 C471.4063,262.2344 470.8125,262.0938 469.9375,262.0938 C467.3125,262.0938 465.3125,264.1719 465.3125,266.8906 L465.3125,268.0156 C465.3125,270.5938 467.4219,272.4844 470.3125,272.4844 C471.5313,272.4844 472.6875,272.1875 473.4375,271.6406 C474.0156,271.2344 474.3438,270.7813 474.3438,270.3906 C474.3438,269.9375 473.9531,269.5469 473.4844,269.5469 C473.2656,269.5469 473.0625,269.625 472.875,269.8125 C472.4219,270.2969 472.4219,270.2969 472.2344,270.3906 C471.8125,270.6563 471.125,270.7813 470.3594,270.7813 C468.3125,270.7813 467.0156,269.6875 467.0156,267.9844 L467.0156,266.8906 C467.0156,265.1094 468.2656,263.7969 470,263.7969 C470.5781,263.7969 471.1875,263.9531 471.6563,264.2031 C472.1406,264.4844 472.3125,264.7031 472.4063,265.1094 C472.4688,265.5156 472.5,265.6406 472.6406,265.7656 C472.7813,265.9063 473.0156,266.0156 473.2344,266.0156 C473.5,266.0156 473.7656,265.875 473.9375,265.6563 C474.0469,265.5 474.0781,265.3125 474.0781,264.8906 L474.0781,263.4688 C474.0781,263.0313 474.0625,262.9063 473.9688,262.75 C473.8125,262.4844 473.5313,262.3438 473.2344,262.3438 C472.9375,262.3438 472.7344,262.4375 472.5156,262.75 L472.3438,262.6719 Z " fill="#000000"/><text fill="#000000" font-family="sans-serif" font-size="14" lengthAdjust="spacing" textLength="129" x="484" y="271.8467">GraphicController</text><line style="stroke:#181818;stroke-width:0.5;" x1="456" x2="615" y1="283" y2="283"/><line style="stroke:#181818;stroke-width:0.5;" x1="456" x2="615" y1="291" y2="291"/><ellipse cx="466" cy="304.6484" fill="#84BE84" rx="3" ry="3" style="stroke:#038048;stroke-width:1.0;"/><text fill="#000000" font-family="sans-serif" font-size="14" lengthAdjust="spacing" textLength="80" x="475" y="307.9951">Get(): Data</text><ellipse cx="466" cy="320.9453" fill="#84BE84" rx="3" ry="3" style="stroke:#038048;stroke-width:1.0;"/><text fill="#000000" font-family="sans-serif" font-size="14" lengthAdjust="spacing" textLength="117" x="475" y="324.292">Post(data: Data)</text></g><!--class GraphicsDataRequest--><g id="elem_GraphicsDataRequest"><rect codeLine="30" fill="#F1F1F1" height="113.1875" id="GraphicsDataRequest" rx="2.5" ry="2.5" style="stroke:#181818;stroke-width:0.5;" width="216" x="427.5" y="433"/><ellipse cx="455.1" cy="449" fill="#ADD1B2" rx="11" ry="11" style="stroke:#181818;stroke-width:1.0;"/><path d="M457.4438,444.6719 C456.5063,444.2344 455.9125,444.0938 455.0375,444.0938 C452.4125,444.0938 450.4125,446.1719 450.4125,448.8906 L450.4125,450.0156 C450.4125,452.5938 452.5219,454.4844 455.4125,454.4844 C456.6313,454.4844 457.7875,454.1875 458.5375,453.6406 C459.1156,453.2344 459.4438,452.7813 459.4438,452.3906 C459.4438,451.9375 459.0531,451.5469 458.5844,451.5469 C458.3656,451.5469 458.1625,451.625 457.975,451.8125 C457.5219,452.2969 457.5219,452.2969 457.3344,452.3906 C456.9125,452.6563 456.225,452.7813 455.4594,452.7813 C453.4125,452.7813 452.1156,451.6875 452.1156,449.9844 L452.1156,448.8906 C452.1156,447.1094 453.3656,445.7969 455.1,445.7969 C455.6781,445.7969 456.2875,445.9531 456.7563,446.2031 C457.2406,446.4844 457.4125,446.7031 457.5063,447.1094 C457.5688,447.5156 457.6,447.6406 457.7406,447.7656 C457.8813,447.9063 458.1156,448.0156 458.3344,448.0156 C458.6,448.0156 458.8656,447.875 459.0375,447.6563 C459.1469,447.5 459.1781,447.3125 459.1781,446.8906 L459.1781,445.4688 C459.1781,445.0313 459.1625,444.9063 459.0688,444.75 C458.9125,444.4844 458.6313,444.3438 458.3344,444.3438 C458.0375,444.3438 457.8344,444.4375 457.6156,444.75 L457.4438,444.6719 Z " fill="#000000"/><text fill="#000000" font-family="sans-serif" font-size="14" lengthAdjust="spacing" textLength="156" x="471.9" y="453.8467">GraphicsDataRequest</text><line style="stroke:#181818;stroke-width:0.5;" x1="428.5" x2="642.5" y1="465" y2="465"/><ellipse cx="438.5" cy="478.6484" fill="none" rx="3" ry="3" style="stroke:#038048;stroke-width:1.0;"/><text fill="#000000" font-family="sans-serif" font-size="14" lengthAdjust="spacing" textLength="32" x="447.5" y="481.9951">int x</text><ellipse cx="438.5" cy="494.9453" fill="none" rx="3" ry="3" style="stroke:#038048;stroke-width:1.0;"/><text fill="#000000" font-family="sans-serif" font-size="14" lengthAdjust="spacing" textLength="32" x="447.5" y="498.292">int z</text><ellipse cx="438.5" cy="511.2422" fill="none" rx="3" ry="3" style="stroke:#038048;stroke-width:1.0;"/><text fill="#000000" font-family="sans-serif" font-size="14" lengthAdjust="spacing" textLength="190" x="447.5" y="514.5889">int premadeFunctionIndex</text><ellipse cx="438.5" cy="527.5391" fill="none" rx="3" ry="3" style="stroke:#038048;stroke-width:1.0;"/><text fill="#000000" font-family="sans-serif" font-size="14" lengthAdjust="spacing" textLength="101" x="447.5" y="530.8857">string formula</text><line style="stroke:#181818;stroke-width:0.5;" x1="428.5" x2="642.5" y1="538.1875" y2="538.1875"/></g><!--class OpenGLGeneratedMesh--><g id="elem_OpenGLGeneratedMesh"><rect codeLine="36" fill="#F1F1F1" height="96.8906" id="OpenGLGeneratedMesh" rx="2.5" ry="2.5" style="stroke:#181818;stroke-width:0.5;" width="288" x="678.5" y="441"/><ellipse cx="732.25" cy="457" fill="#ADD1B2" rx="11" ry="11" style="stroke:#181818;stroke-width:1.0;"/><path d="M734.5938,452.6719 C733.6563,452.2344 733.0625,452.0938 732.1875,452.0938 C729.5625,452.0938 727.5625,454.1719 727.5625,456.8906 L727.5625,458.0156 C727.5625,460.5938 729.6719,462.4844 732.5625,462.4844 C733.7813,462.4844 734.9375,462.1875 735.6875,461.6406 C736.2656,461.2344 736.5938,460.7813 736.5938,460.3906 C736.5938,459.9375 736.2031,459.5469 735.7344,459.5469 C735.5156,459.5469 735.3125,459.625 735.125,459.8125 C734.6719,460.2969 734.6719,460.2969 734.4844,460.3906 C734.0625,460.6563 733.375,460.7813 732.6094,460.7813 C730.5625,460.7813 729.2656,459.6875 729.2656,457.9844 L729.2656,456.8906 C729.2656,455.1094 730.5156,453.7969 732.25,453.7969 C732.8281,453.7969 733.4375,453.9531 733.9063,454.2031 C734.3906,454.4844 734.5625,454.7031 734.6563,455.1094 C734.7188,455.5156 734.75,455.6406 734.8906,455.7656 C735.0313,455.9063 735.2656,456.0156 735.4844,456.0156 C735.75,456.0156 736.0156,455.875 736.1875,455.6563 C736.2969,455.5 736.3281,455.3125 736.3281,454.8906 L736.3281,453.4688 C736.3281,453.0313 736.3125,452.9063 736.2188,452.75 C736.0625,452.4844 735.7813,452.3438 735.4844,452.3438 C735.1875,452.3438 734.9844,452.4375 734.7656,452.75 L734.5938,452.6719 Z " fill="#000000"/><text fill="#000000" font-family="sans-serif" font-size="14" lengthAdjust="spacing" textLength="172" x="752.75" y="461.8467">OpenGLGeneratedMesh</text><line style="stroke:#181818;stroke-width:0.5;" x1="679.5" x2="965.5" y1="473" y2="473"/><ellipse cx="689.5" cy="486.6484" fill="none" rx="3" ry="3" style="stroke:#038048;stroke-width:1.0;"/><text fill="#000000" font-family="sans-serif" font-size="14" lengthAdjust="spacing" textLength="225" x="698.5" y="489.9951">List&lt;Vector3&gt; tempVertexList</text><ellipse cx="689.5" cy="502.9453" fill="none" rx="3" ry="3" style="stroke:#038048;stroke-width:1.0;"/><text fill="#000000" font-family="sans-serif" font-size="14" lengthAdjust="spacing" textLength="130" x="698.5" y="506.292">List&lt;uint&gt; indices</text><ellipse cx="689.5" cy="519.2422" fill="none" rx="3" ry="3" style="stroke:#038048;stroke-width:1.0;"/><text fill="#000000" font-family="sans-serif" font-size="14" lengthAdjust="spacing" textLength="262" x="698.5" y="522.5889">List&lt;Vector2&gt; tempTexturesCoords</text><line style="stroke:#181818;stroke-width:0.5;" x1="679.5" x2="965.5" y1="529.8906" y2="529.8906"/></g><!--link Backend to Frontend--><g id="link_Backend_Frontend"><path codeLine="41" d="M608.14,47.5 C648.966,47.5 686.385,47.5 725.983,47.5 " fill="none" id="Backend-to-Frontend" style="stroke:#181818;stroke-width:1.0;"/><polygon fill="#181818" points="731.983,47.5,722.983,43.5,726.983,47.5,722.983,51.5,731.983,47.5" style="stroke:#181818;stroke-width:1.0;"/><text fill="#000000" font-family="sans-serif" font-size="13" lengthAdjust="spacing" textLength="87" x="626.5" y="40.5669">Provee Datos</text></g><!--link Frontend to Backend--><g id="link_Frontend_Backend"><path codeLine="42" d="M731.679,65.865 C724.185,66.503 716.757,67.056 709.5,67.5 C676.688,69.505 647.6024,69.2016 614.0654,67.2046 " fill="none" id="Frontend-to-Backend" style="stroke:#181818;stroke-width:1.0;"/><polygon fill="#181818" points="608.076,66.848,616.8223,71.3759,613.0672,67.1452,617.2978,63.39,608.076,66.848" style="stroke:#181818;stroke-width:1.0;"/><text fill="#000000" font-family="sans-serif" font-size="13" lengthAdjust="spacing" textLength="77" x="631.5" y="63.5669">Envia Datos</text></g><!--link Backend to Graphic2DController--><g id="link_Backend_Graphic2DController"><path codeLine="43" d="M424.983,88.19 C406.52,125.736 381.1466,177.3368 359.5426,221.2708 " fill="none" id="Backend-to-Graphic2DController" style="stroke:#181818;stroke-width:1.0;"/><polygon fill="#181818" points="356.895,226.655,364.4559,220.3437,359.1014,222.1681,357.277,216.8136,356.895,226.655" style="stroke:#181818;stroke-width:1.0;"/><text fill="#000000" font-family="sans-serif" font-size="13" lengthAdjust="spacing" textLength="24" x="396.5" y="162.0669">Usa</text></g><!--link Backend to GraphicController--><g id="link_Backend_GraphicController"><path codeLine="44" d="M459.425,88.19 C476.317,133.111 501.5602,200.2419 518.4552,245.1719 " fill="none" id="Backend-to-GraphicController" style="stroke:#181818;stroke-width:1.0;"/><polygon fill="#181818" points="520.567,250.788,521.1433,240.956,518.8072,246.1079,513.6552,243.7718,520.567,250.788" style="stroke:#181818;stroke-width:1.0;"/><text fill="#000000" font-family="sans-serif" font-size="13" lengthAdjust="spacing" textLength="24" x="489.5" y="162.0669">Usa</text></g><!--link Graphic2DController to GraphicData2D--><g id="link_Graphic2DController_GraphicData2D"><path codeLine="45" d="M324.201,356.136 C323.579,386.651 322.9745,416.2583 322.4315,442.8498 " fill="none" id="Graphic2DController-to-GraphicData2D" style="stroke:#181818;stroke-width:1.0;"/><polygon fill="#181818" points="322.309,448.8485,326.4919,439.932,322.4111,443.8495,318.4936,439.7687,322.309,448.8485" style="stroke:#181818;stroke-width:1.0;"/><text fill="#000000" font-family="sans-serif" font-size="13" lengthAdjust="spacing" textLength="57" x="324.5" y="399.0669">Contiene</text></g><!--link ArchivoDeTexto2D to Graphic2DController--><g id="link_ArchivoDeTexto2D_Graphic2DController"><path codeLine="46" d="M180.014,291.5 C199.539,291.5 208.434,291.5 228.275,291.5 " fill="none" id="ArchivoDeTexto2D-Graphic2DController" style="stroke:#181818;stroke-width:1.0;"/><polygon fill="#181818" points="174.014,291.5,183.014,295.5,179.014,291.5,183.014,287.5,174.014,291.5" style="stroke:#181818;stroke-width:1.0;"/><polygon fill="#181818" points="234.275,291.5,225.275,287.5,229.275,291.5,225.275,295.5,234.275,291.5" style="stroke:#181818;stroke-width:1.0;"/><text fill="#000000" font-family="sans-serif" font-size="13" lengthAdjust="spacing" textLength="24" x="192.25" y="284.5669">Usa</text></g><!--link GraphicController to ArchivoDeTexto3D--><g id="link_GraphicController_ArchivoDeTexto3D"><path codeLine="48" d="M616.359,291.5 C627.994,291.5 633.629,291.5 645.264,291.5 " fill="none" id="GraphicController-to-ArchivoDeTexto3D" style="stroke:#181818;stroke-width:1.0;"/><polygon fill="#181818" points="651.264,291.5,642.264,287.5,646.264,291.5,642.264,295.5,651.264,291.5" style="stroke:#181818;stroke-width:1.0;"/></g><!--link GraphicController to OpenGLGeneratedMesh--><g id="link_GraphicController_OpenGLGeneratedMesh"><path codeLine="49" d="M593.579,332.164 C639.605,363.596 699.1092,404.2332 747.9042,437.5572 " fill="none" id="GraphicController-to-OpenGLGeneratedMesh" style="stroke:#181818;stroke-width:1.0;"/><polygon fill="#181818" points="752.859,440.941,747.6827,432.5621,748.73,438.1212,743.171,439.1685,752.859,440.941" style="stroke:#181818;stroke-width:1.0;"/></g><!--link GraphicController to GraphicsDataRequest--><g id="link_GraphicController_GraphicsDataRequest"><path codeLine="50" d="M535.5,332.164 C535.5,361.135 535.5,394.801 535.5,426.928 " fill="none" id="GraphicController-to-GraphicsDataRequest" style="stroke:#181818;stroke-width:1.0;"/><polygon fill="#181818" points="535.5,432.928,539.5,423.928,535.5,427.928,531.5,423.928,535.5,432.928" style="stroke:#181818;stroke-width:1.0;"/></g><!--SRC=[XLDDRy8m3BttL_XOX7g1MpKXCRgnIKn3qpxEKUAjqKhI9Iw3eVttERJ01fcuvCD-xzcE7La9x-5Io7SqAjaa_IbI8KYaYfV7TOqv5DsfbyEa56xhJlfZAR6cMrCtbEgmvh2z12yZbrQhv3kHM_bhPmsr-XcyQAFi9nkjMtWeh6mMQ2ZftmYZAZmdU6L8qnh6JfPwQGjyn1NPGH6t3uikWQaJTQdbe9Xm8ivM5RgGIwYnhMzRTzhRNURMKthmxiBt2woGCDLgRvatCU3ttxZ1nJdowwvoUAsiu7BNkzCHzf3XvanInqmVh0_uqQ0dve8s1Ajk_-hssk52ABnkZ2HjpQrH622Ud3PlyCejQIgn5xwlqKndKpJe1A6wGr-oy4nxkdX6ITODHq2ug9_H4Qw2lVCs76l40PMMwFym1YqZjATnw2VMEkKvO3U1a3dzLb8ssizC3dDdbuYXPkkJdHaondIa7AxCKeiEiLSAY4ZZStZo8eewnaJ8y0lUTfK_1Nirlr4KVv7Dc74yhgr-SXBtKFx984Um38jqw1zaP4X-0000]--></g></svg>